<svg xmlns="http://www.w3.org/2000/svg" viewBox="0 0 120 96" role="img" aria-labelledby="title">
  <title id="title">Adivento market signal mark</title>
  <defs>
    <linearGradient id="markFill" x1="14" y1="88" x2="88" y2="10" gradientUnits="userSpaceOnUse">
      <stop stop-color="#0F5136"/>
      <stop offset="1" stop-color="#1F2A26"/>
    </linearGradient>
    <linearGradient id="curveFill" x1="34" y1="66" x2="93" y2="38" gradientUnits="userSpaceOnUse">
      <stop stop-color="#1E7C6B"/>
      <stop offset="1" stop-color="#7FAE9D"/>
    </linearGradient>
  </defs>
  <path fill="url(#markFill)" d="M7 87 47 13c2.6-4.8 9.5-4.8 12.1 0L99 87H78.5L53.1 38.8 31 87H7Z"/>
  <path fill="#FAF7F2" d="M34.5 68.5c16.2-18 36.2-28.5 58-30.6l5.7 11.2c-23.4 1.1-43.4 8.6-60.1 22.6l-3.6-3.2Z"/>
  <path fill="url(#curveFill)" d="M36.6 74.6c15.6-14.2 34.6-21 57.1-20.4l2.5 5c-22.3.1-40.7 6.2-55.2 18.3l-4.4-2.9Z"/>
  <rect x="62" y="57" width="11" height="30" rx="1.5" fill="#1E7C6B"/>
  <rect x="80" y="47" width="11" height="40" rx="1.5" fill="#7FAE9D"/>
  <rect x="98" y="37" width="11" height="50" rx="1.5" fill="#E9DFCF"/>
</svg>
